<svg width="21" height="20" viewBox="0 0 21 20" fill="none" xmlns="http://www.w3.org/2000/svg">
<g clip-path="url(#clip0_38_594)">
<path d="M14.4379 20C13.7923 20 13.1522 19.8859 12.5262 19.6585C9.76859 18.6567 7.20893 17.0251 5.12386 14.9401C3.03879 12.8551 1.40721 10.2954 0.405496 7.53774C0.0835954 6.65152 -0.0114007 5.73672 0.123242 4.81863C0.24937 3.95867 0.582481 3.12382 1.0866 2.40432C1.59295 1.68165 2.268 1.08058 3.03875 0.666105C3.86067 0.224131 4.75778 0 5.70524 0C5.99991 0 6.25459 0.20589 6.31635 0.494003L7.29732 5.0719C7.34173 5.2792 7.27803 5.49489 7.12815 5.64481L5.45193 7.32099C7.03319 10.4648 9.59902 13.0307 12.7429 14.6119L14.4191 12.9357C14.569 12.7858 14.7847 12.7222 14.992 12.7665L19.5699 13.7475C19.858 13.8093 20.0639 14.064 20.0639 14.3586C20.0639 15.3061 19.8397 16.2032 19.3977 17.0252C18.9832 17.7959 18.3822 18.471 17.6595 18.9773C16.9401 19.4814 16.1052 19.8145 15.2452 19.9407C14.9757 19.9802 14.7063 20 14.4379 20V20ZM5.20588 1.27729C3.95613 1.41525 2.84688 2.07031 2.11027 3.12163C1.28194 4.30381 1.08879 5.75785 1.58033 7.111C3.50619 12.4126 7.65137 16.5578 12.9529 18.4836C14.3061 18.9752 15.7601 18.782 16.9423 17.9537C17.9936 17.2171 18.6487 16.1078 18.7867 14.8581L15.0626 14.06L13.312 15.8106C13.1257 15.9969 12.8427 16.0464 12.6043 15.9343C8.88612 14.1875 5.8764 11.1778 4.1296 7.45962C4.01761 7.22123 4.06706 6.93819 4.25335 6.75195L6.0039 5.0014L5.20588 1.27729Z" fill="white"/>
</g>
<defs>
<clipPath id="clip0_38_594">
<rect width="20" height="20" fill="white" transform="translate(0.0634766)"/>
</clipPath>
</defs>
</svg>
